<svg xml:space="preserve" style="enable-background:new 0 0 255.975 237.578;" viewBox="0 0 255.975 237.578" height="237.578px" width="255.975px" y="0px" x="0px" xmlns:xlink="http://www.w3.org/1999/xlink" xmlns="http://www.w3.org/2000/svg" id="Layer_1" version="1.1">
<g style="display:none;" id="Layer_3_1_">
	<g style="display:inline;">
		<path d="M90.637,149.562c0-11.094-9.652-20.09-21.559-20.09
			c-0.188,0-0.369,0.01-0.554,0.015c-3.76-5.888-10.65-9.83-18.534-9.83c-11.904,0-21.562,8.991-21.562,20.087
			c0,0.146,0.01,0.284,0.013,0.43c-6.507,3.455-10.9,9.979-10.9,17.46c0,11.097,9.65,20.086,21.559,20.086
			c0.677,0,1.346-0.03,2.008-0.09c3.955,4.46,9.938,7.31,16.635,7.31c11.006,0,20.076-7.688,21.391-17.607
			C85.969,163.969,90.637,157.277,90.637,149.562z" style="fill:#D7F7E4;stroke:#CCCCDE;stroke-width:3;"></path>
		<path d="M68.714,128.753c-0.186,0-0.371,0.011-0.55,0.017
			c-3.016-4.721-8.044-8.188-13.983-9.381c4.7,1.18,8.657,4.037,11.093,7.844c0.155-0.004,2.319,3.729,2.479,3.729
			c10.215,0,14.969,5.505,14.969,15.024c0,6.617-2.479,10.836-8.352,13.725c-1.125,8.516-8.911,15.109-18.354,15.109
			c-5.747,0-10.881-2.44-14.273-6.267c-0.567,0.048-1.143,0.072-1.723,0.072c-10.219,0-18.244-4.846-18.244-14.363
			c0-6.411,2.865-9.567,8.093-13.372c-0.143-0.82-0.722-8.08,1.214-10.017c4.599-4.601,6.682-8.548,10.794-10.592
			c-8.074,2.901-13.801,10.196-13.801,18.743c0,0.145,0.009,0.287,0.011,0.43c-6.511,3.458-10.902,9.977-10.902,17.458
			c0,11.096,9.652,20.092,21.561,20.092c0.677,0,1.344-0.033,2.007-0.096c3.955,4.459,9.937,7.309,16.634,7.309
			c11.005,0,20.077-7.688,21.388-17.61c6.846-3.362,11.513-10.054,11.513-17.771C90.275,137.746,80.623,128.753,68.714,128.753z" style="opacity:0.1;fill:#6E6E96;enable-background:new    ;"></path>
		<path d="M38.031,160.43c0,0,11.163,2.185,11.163,13.107
			c0,0,3.011,18.561-8.61,31.689H67.41c-0.268-0.375-23.436-31.326,2.351-49.719C54.036,164.498,38.031,160.43,38.031,160.43z" style="fill:#EDE3DA;stroke:#CCCCDE;stroke-width:3;"></path>
		<g>
			<path d="M45.101,138.512" style="fill:#D57E58;"></path>
		</g>
		<path d="M63.068,160.396c0,0-16.936,21.869-3.919,44.83h8.264
			C67.41,205.229,50.22,181.202,63.068,160.396z" style="opacity:0.11;fill:#6E6E96;enable-background:new    ;"></path>
	</g>
	<g style="display:inline;">
		<path d="M253.601,148.332c0-10.389-9.037-18.811-20.187-18.811
			c-0.177,0-0.346,0.008-0.52,0.013c-3.521-5.511-9.975-9.206-17.355-9.206c-11.151,0-20.19,8.422-20.19,18.811
			c0,0.137,0.01,0.269,0.013,0.4c-6.096,3.236-10.213,9.346-10.213,16.354c0,10.392,9.039,18.812,20.188,18.812
			c0.634,0,1.261-0.03,1.883-0.086c3.702,4.176,9.305,6.847,15.576,6.847c10.3,0,18.802-7.194,20.03-16.489
			C249.232,161.818,253.601,155.557,253.601,148.332z" style="fill:#D7F7E4;stroke:#CCCCDE;stroke-width:3;"></path>
		<path d="M233.073,128.846c-0.182,0-0.345,0.01-0.518,0.012
			c-2.821-4.42-7.537-7.668-13.095-8.781c4.397,1.104,8.104,3.779,10.383,7.346c0.149-0.004,2.174,3.491,2.321,3.491
			c9.565,0,14.018,5.153,14.018,14.069c0,6.199-2.322,10.146-7.817,12.854c-1.057,7.976-8.348,14.142-17.188,14.142
			c-5.377,0-10.189-2.285-13.369-5.866c-0.538,0.048-1.065,0.065-1.618,0.065c-9.567,0-17.083-4.535-17.083-13.449
			c0-6.004,2.688-8.961,7.574-12.524c-0.134-0.772-0.67-7.568,1.144-9.375c4.304-4.308,6.256-8.006,10.105-9.919
			c-7.56,2.719-12.926,9.549-12.926,17.55c0,0.135,0.006,0.267,0.01,0.399c-6.097,3.236-10.214,9.344-10.214,16.354
			c0,10.389,9.039,18.812,20.188,18.812c0.635,0,1.263-0.03,1.882-0.088c3.701,4.178,9.307,6.849,15.576,6.849
			c10.307,0,18.802-7.195,20.028-16.492c6.41-3.151,10.774-9.416,10.774-16.64C253.264,137.266,244.225,128.846,233.073,128.846z" style="opacity:0.1;fill:#6E6E96;enable-background:new    ;"></path>
		<path d="M204.339,158.505c0,0,10.455,2.05,10.455,12.282
			c0,0,2.817,17.374-8.063,29.676h25.126c-0.251-0.344-21.942-29.328,2.199-46.559C219.326,162.316,204.339,158.505,204.339,158.505
			z" style="fill:#EDE3DA;stroke:#CCCCDE;stroke-width:3;"></path>
		<g>
			<path d="M210.962,137.984" style="fill:#D57E58;"></path>
		</g>
		<path d="M227.784,158.479c0,0-15.858,20.479-3.666,41.979h7.736
			C231.852,200.458,215.755,177.962,227.784,158.479z" style="opacity:0.11;fill:#6E6E96;enable-background:new    ;"></path>
	</g>
	<g style="display:inline;">
		<path d="M218.384,150.021c0-15.949-13.876-28.877-30.991-28.877
			c-0.268,0-0.532,0.012-0.795,0.019c-5.402-8.459-15.312-14.132-26.646-14.132c-17.117,0-30.994,12.929-30.994,28.879
			c0,0.205,0.014,0.412,0.017,0.619c-9.358,4.971-15.677,14.338-15.677,25.097c0,15.946,13.877,28.879,30.994,28.879
			c0.972,0,1.935-0.046,2.886-0.133c5.685,6.418,14.289,10.505,23.912,10.505c15.822,0,28.862-11.047,30.751-25.311
			C211.678,170.73,218.384,161.109,218.384,150.021z" style="fill:#D7F7E4;stroke:#CCCCDE;stroke-width:3;"></path>
		<path d="M186.872,120.105c-0.266,0-0.528,0.012-0.795,0.018
			c-4.333-6.784-11.563-11.772-20.103-13.483c6.757,1.695,12.448,5.804,15.942,11.276c0.227-0.005,3.337,5.359,3.562,5.359
			c14.692,0,21.525,7.914,21.525,21.601c0,9.513-3.567,15.574-12.01,19.729c-1.617,12.239-12.813,21.72-26.389,21.72
			c-8.258,0-15.642-3.505-20.521-9.015c-0.816,0.063-1.644,0.106-2.478,0.106c-14.688,0-26.227-6.961-26.227-20.646
			c0-9.219,4.124-13.758,11.629-19.229c-0.2-1.186-1.032-11.614,1.748-14.396c6.61-6.611,9.604-12.291,15.52-15.228
			c-11.605,4.174-19.842,14.659-19.842,26.942c0,0.205,0.012,0.414,0.017,0.621c-9.362,4.968-15.681,14.34-15.681,25.097
			c0,15.946,13.875,28.882,30.993,28.882c0.979,0,1.938-0.049,2.886-0.133c5.687,6.416,14.291,10.503,23.913,10.503
			c15.82,0,28.859-11.047,30.748-25.31c9.845-4.84,16.547-14.461,16.547-25.547C217.865,133.031,203.99,120.105,186.872,120.105z" style="opacity:0.1;fill:#6E6E96;enable-background:new    ;"></path>
		<path d="M142.761,165.641c0,0,16.05,3.14,16.05,18.847
			c0,0,4.321,26.686-12.379,45.559h38.565c-0.38-0.533-33.685-45.021,3.379-71.468C165.769,171.492,142.761,165.641,142.761,165.641
			z" style="fill:#EDE3DA;stroke:#CCCCDE;stroke-width:3;"></path>
		<g>
			<path d="M152.925,134.139" style="fill:#D57E58;"></path>
		</g>
		<path d="M178.755,165.598c0,0-24.353,31.439-5.635,64.444h11.876
			C184.997,230.042,160.287,195.506,178.755,165.598z" style="opacity:0.11;fill:#6E6E96;enable-background:new    ;"></path>
	</g>
	<g style="display:inline;">
		<path d="M149.456,151.09c0-13.098-11.396-23.708-25.444-23.708
			c-0.22,0-0.436,0.011-0.656,0.015c-4.433-6.942-12.569-11.602-21.876-11.602c-14.051,0-25.442,10.616-25.442,23.707
			c0,0.172,0.01,0.34,0.013,0.508c-7.686,4.081-12.871,11.771-12.871,20.607c0,13.095,11.391,23.705,25.447,23.705
			c0.799,0,1.585-0.036,2.369-0.098c4.667,5.26,11.729,8.615,19.632,8.615c12.989,0,23.697-9.068,25.243-20.771
			C143.948,168.088,149.456,160.189,149.456,151.09z" style="fill:#D7F7E4;stroke:#CCCCDE;stroke-width:3;"></path>
		<path d="M123.584,126.529c-0.219,0-0.435,0.009-0.651,0.016
			c-3.557-5.57-9.496-9.665-16.503-11.07c5.545,1.39,10.218,4.763,13.09,9.255c0.187-0.004,2.739,4.399,2.93,4.399
			c12.054,0,17.668,6.496,17.668,17.729c0,7.812-2.932,12.789-9.855,16.199c-1.327,10.051-10.517,17.832-21.663,17.832
			c-6.78,0-12.843-2.886-16.848-7.402c-0.671,0.061-1.349,0.094-2.033,0.094c-12.059,0-21.53-5.717-21.53-16.95
			c0-7.565,3.388-11.293,9.547-15.782c-0.164-0.979-0.848-9.537,1.437-11.815c5.427-5.429,7.886-10.09,12.741-12.5
			c-9.532,3.426-16.292,12.034-16.292,22.119c0,0.172,0.013,0.341,0.017,0.507c-7.69,4.077-12.872,11.773-12.872,20.609
			c0,13.093,11.396,23.707,25.445,23.707c0.8,0,1.589-0.041,2.369-0.104c4.667,5.268,11.731,8.625,19.633,8.625
			c12.986,0,23.691-9.069,25.247-20.78c8.078-3.975,13.586-11.868,13.586-20.97C149.03,137.145,137.637,126.529,123.584,126.529z" style="opacity:0.1;fill:#6E6E96;enable-background:new    ;"></path>
		<path d="M87.37,163.912c0,0,13.176,2.58,13.176,15.477
			c0,0,3.547,21.896-10.167,37.401h31.665c-0.315-0.438-27.658-36.962,2.771-58.677C106.26,168.714,87.37,163.912,87.37,163.912z" style="fill:#EDE3DA;stroke:#CCCCDE;stroke-width:3;"></path>
		<g>
			<path d="M95.714,138.05" style="fill:#D57E58;"></path>
		</g>
		<path d="M116.919,163.875c0,0-19.992,25.811-4.623,52.91h9.751
			C122.045,216.785,101.757,188.43,116.919,163.875z" style="opacity:0.11;fill:#6E6E96;enable-background:new    ;"></path>
	</g>
	<g style="display:inline;">
		<path d="M252.34,174.247c0-11.843-10.306-21.444-23.02-21.444
			c-0.191,0-0.389,0.008-0.586,0.016c-4.017-6.282-11.374-10.495-19.79-10.495c-12.712,0-23.012,9.602-23.012,21.446
			c0,0.154,0.013,0.304,0.017,0.459c-6.951,3.693-11.645,10.652-11.645,18.646c0,11.849,10.297,21.449,23.01,21.449
			c0.724,0,1.438-0.036,2.142-0.103c4.218,4.769,10.609,7.808,17.762,7.808c11.75,0,21.435-8.207,22.835-18.8
			C247.355,189.626,252.34,182.482,252.34,174.247z" style="fill:#D7F7E4;stroke:#CCCCDE;stroke-width:3;"></path>
		<path d="M228.934,152.027c-0.197,0-0.393,0.015-0.591,0.019
			c-3.217-5.036-8.581-8.739-14.929-10.015c5.019,1.259,9.244,4.31,11.841,8.373c0.168-0.004,2.474,3.979,2.645,3.979
			c10.908,0,15.982,5.875,15.982,16.043c0,7.063-2.646,11.568-8.916,14.653c-1.201,9.09-9.514,16.133-19.596,16.133
			c-6.139,0-11.616-2.611-15.241-6.695c-0.606,0.053-1.221,0.082-1.838,0.082c-10.908,0-19.479-5.171-19.479-15.332
			c0-6.85,3.06-10.218,8.64-14.283c-0.149-0.881-0.773-8.621,1.298-10.69c4.909-4.909,7.138-9.133,11.522-11.308
			c-8.612,3.098-14.729,10.887-14.729,20.011c0,0.149,0.012,0.302,0.017,0.459c-6.954,3.692-11.646,10.655-11.646,18.646
			c0,11.844,10.304,21.446,23.018,21.446c0.723,0,1.433-0.032,2.138-0.101c4.225,4.767,10.616,7.805,17.764,7.805
			c11.749,0,21.434-8.211,22.838-18.8c7.304-3.591,12.292-10.733,12.292-18.972C251.95,161.635,241.647,152.027,228.934,152.027z" style="opacity:0.1;fill:#6E6E96;enable-background:new    ;"></path>
		<path d="M196.174,185.846c0,0,11.918,2.336,11.918,13.996
			c0,0,3.21,19.813-9.195,33.836h28.646c-0.283-0.394-25.016-33.438,2.509-53.078C213.262,190.195,196.174,185.846,196.174,185.846z" style="fill:#EDE3DA;stroke:#CCCCDE;stroke-width:3;"></path>
		<g>
			<path d="M203.725,162.453" style="fill:#D57E58;"></path>
		</g>
		<path d="M222.906,185.814c0,0-18.086,23.351-4.184,47.862h8.817
			C227.54,233.678,209.189,208.027,222.906,185.814z" style="opacity:0.11;fill:#6E6E96;enable-background:new    ;"></path>
	</g>
	<g style="display:inline;">
		<path d="M94.721,172.473c0-12.58-10.947-22.776-24.447-22.776
			c-0.216,0-0.422,0.008-0.627,0.014c-4.263-6.671-12.079-11.142-21.02-11.142c-13.498,0-24.448,10.199-24.448,22.771
			c0,0.165,0.01,0.323,0.014,0.489c-7.385,3.917-12.365,11.315-12.365,19.799c0,12.575,10.943,22.774,24.446,22.774
			c0.77,0,1.526-0.037,2.276-0.101c4.484,5.06,11.27,8.288,18.864,8.288c12.479,0,22.768-8.714,24.255-19.966
			C89.43,188.807,94.721,181.219,94.721,172.473z" style="fill:#D7F7E4;stroke:#CCCCDE;stroke-width:3;"></path>
		<path d="M69.862,148.874c-0.211,0-0.417,0.01-0.622,0.019
			c-3.42-5.354-9.121-9.287-15.855-10.641c5.328,1.338,9.817,4.58,12.576,8.896c0.178-0.004,2.625,4.229,2.81,4.229
			c11.587,0,16.979,6.242,16.979,17.039c0,7.504-2.815,12.287-9.474,15.564c-1.273,9.655-10.104,17.131-20.812,17.131
			c-6.52,0-12.338-2.769-16.188-7.109c-0.642,0.055-1.293,0.087-1.951,0.087c-11.586,0-20.688-5.491-20.688-16.286
			c0-7.27,3.253-10.853,9.174-15.171c-0.159-0.938-0.814-9.166,1.38-11.356c5.214-5.217,7.576-9.693,12.241-12.012
			c-9.154,3.293-15.652,11.563-15.652,21.25c0,0.162,0.011,0.322,0.015,0.486c-7.385,3.921-12.366,11.316-12.366,19.807
			c0,12.574,10.94,22.773,24.447,22.773c0.768,0,1.524-0.037,2.275-0.102c4.484,5.061,11.271,8.289,18.863,8.289
			c12.48,0,22.767-8.712,24.251-19.968c7.766-3.817,13.055-11.412,13.055-20.151C94.312,159.072,83.366,148.874,69.862,148.874z" style="opacity:0.1;fill:#6E6E96;enable-background:new    ;"></path>
		<path d="M35.068,184.791c0,0,12.66,2.479,12.66,14.868
			c0,0,3.409,21.044-9.771,35.935H68.38c-0.299-0.421-26.57-35.518,2.666-56.383C53.217,189.406,35.068,184.791,35.068,184.791z" style="fill:#EDE3DA;stroke:#CCCCDE;stroke-width:3;"></path>
		<g>
			<path d="M43.085,159.939" style="fill:#D57E58;"></path>
		</g>
		<path d="M63.46,184.757c0,0-19.208,24.802-4.445,50.837h9.368
			C68.382,235.596,48.891,208.354,63.46,184.757z" style="opacity:0.11;fill:#6E6E96;enable-background:new    ;"></path>
	</g>
</g>
<g style="display:none;" id="Layer_3">
	<g style="display:inline;">
		<path d="M91.595,149.562c0-11.094-9.652-20.09-21.558-20.09
			c-0.188,0-0.369,0.01-0.555,0.015c-3.759-5.888-10.65-9.83-18.534-9.83c-11.902,0-21.562,8.991-21.562,20.087
			c0,0.146,0.009,0.284,0.012,0.43c-6.508,3.455-10.899,9.979-10.899,17.46c0,11.097,9.65,20.086,21.557,20.086
			c0.676,0,1.347-0.03,2.006-0.09c3.956,4.46,9.939,7.31,16.634,7.31c11.01,0,20.079-7.688,21.393-17.607
			C86.929,163.969,91.595,157.277,91.595,149.562z" style="fill:#D7F7E4;stroke:#CCCCDE;stroke-width:3;"></path>
		<path d="M69.675,128.753c-0.185,0-0.371,0.011-0.552,0.017
			c-3.016-4.721-8.043-8.188-13.983-9.381c4.701,1.18,8.658,4.037,11.093,7.844c0.155-0.004,2.319,3.729,2.479,3.729
			c10.215,0,14.97,5.505,14.97,15.024c0,6.617-2.479,10.836-8.352,13.725c-1.125,8.516-8.911,15.109-18.354,15.109
			c-5.747,0-10.88-2.44-14.272-6.269c-0.567,0.05-1.143,0.074-1.724,0.074c-10.218,0-18.242-4.846-18.242-14.363
			c0-6.411,2.865-9.567,8.092-13.372c-0.142-0.822-0.721-8.082,1.215-10.017c4.598-4.601,6.681-8.548,10.794-10.592
			c-8.077,2.901-13.806,10.194-13.806,18.741c0,0.144,0.009,0.287,0.012,0.431c-6.512,3.458-10.901,9.973-10.901,17.459
			c0,11.094,9.651,20.09,21.56,20.09c0.679,0,1.344-0.033,2.008-0.093c3.955,4.458,9.938,7.308,16.636,7.308
			c11.005,0,20.078-7.688,21.389-17.61c6.846-3.362,11.512-10.054,11.512-17.771C91.233,137.746,81.583,128.753,69.675,128.753z" style="opacity:0.1;fill:#6E6E96;enable-background:new    ;"></path>
		<path d="M38.99,160.43c0,0,11.161,2.185,11.161,13.107
			c0,0,3.011,18.561-8.611,31.689h26.831c-0.268-0.375-23.436-31.324,2.351-49.719C54.996,164.498,38.99,160.43,38.99,160.43z" style="fill:#EDE3DA;stroke:#CCCCDE;stroke-width:3;"></path>
		<g>
			<path d="M46.059,138.512" style="fill:#D57E58;"></path>
		</g>
		<path d="M64.027,160.396c0,0-16.935,21.869-3.919,44.83h8.265
			C68.371,205.229,51.181,181.202,64.027,160.396z" style="opacity:0.11;fill:#6E6E96;enable-background:new    ;"></path>
	</g>
	<g style="display:inline;">
		<path d="M254.561,148.332c0-10.389-9.039-18.811-20.188-18.811
			c-0.175,0-0.345,0.008-0.52,0.013c-3.521-5.511-9.975-9.206-17.355-9.206c-11.149,0-20.19,8.422-20.19,18.811
			c0,0.137,0.009,0.269,0.012,0.4c-6.096,3.236-10.213,9.346-10.213,16.354c0,10.392,9.04,18.812,20.188,18.812
			c0.634,0,1.261-0.03,1.881-0.086c3.702,4.179,9.306,6.847,15.577,6.847c10.303,0,18.801-7.194,20.03-16.489
			C250.191,161.818,254.561,155.557,254.561,148.332z" style="fill:#D7F7E4;stroke:#CCCCDE;stroke-width:3;"></path>
		<path d="M234.033,128.846c-0.182,0-0.345,0.01-0.52,0.012
			c-2.821-4.42-7.536-7.668-13.094-8.781c4.399,1.104,8.105,3.779,10.384,7.346c0.148-0.004,2.172,3.491,2.321,3.491
			c9.564,0,14.017,5.153,14.017,14.069c0,6.199-2.322,10.146-7.815,12.854c-1.058,7.976-8.35,14.142-17.19,14.142
			c-5.375,0-10.188-2.285-13.369-5.866c-0.536,0.048-1.065,0.065-1.616,0.065c-9.568,0-17.085-4.535-17.085-13.449
			c0-6.002,2.688-8.959,7.576-12.524c-0.136-0.771-0.673-7.566,1.143-9.374c4.304-4.309,6.255-8.005,10.106-9.919
			c-7.56,2.719-12.925,9.55-12.925,17.551c0,0.136,0.004,0.265,0.01,0.4c-6.097,3.237-10.215,9.343-10.215,16.353
			c0,10.389,9.039,18.812,20.19,18.812c0.633,0,1.26-0.029,1.879-0.084c3.703,4.178,9.306,6.843,15.577,6.843
			c10.306,0,18.802-7.195,20.028-16.49c6.409-3.151,10.775-9.415,10.775-16.64C254.223,137.266,245.185,128.846,234.033,128.846z" style="opacity:0.1;fill:#6E6E96;enable-background:new    ;"></path>
		<path d="M205.3,158.505c0,0,10.452,2.05,10.452,12.282
			c0,0,2.818,17.374-8.063,29.676h25.125c-0.25-0.344-21.942-29.328,2.2-46.559C220.286,162.316,205.3,158.505,205.3,158.505z" style="fill:#EDE3DA;stroke:#CCCCDE;stroke-width:3;"></path>
		<g>
			<path d="M211.922,137.984" style="fill:#D57E58;"></path>
		</g>
		<path d="M228.744,158.479c0,0-15.857,20.479-3.666,41.979h7.735
			C232.812,200.458,216.715,177.962,228.744,158.479z" style="opacity:0.11;fill:#6E6E96;enable-background:new    ;"></path>
	</g>
	<g style="display:inline;">
		<path d="M219.344,150.021c0-15.949-13.875-28.877-30.99-28.877
			c-0.268,0-0.533,0.012-0.796,0.019c-5.403-8.459-15.312-14.132-26.646-14.132c-17.117,0-30.993,12.929-30.993,28.879
			c0,0.205,0.012,0.412,0.016,0.619c-9.357,4.971-15.677,14.34-15.677,25.097c0,15.948,13.877,28.88,30.993,28.88
			c0.972,0,1.937-0.051,2.887-0.134c5.688,6.418,14.29,10.508,23.912,10.508c15.821,0,28.863-11.048,30.75-25.312
			C212.637,170.73,219.344,161.109,219.344,150.021z" style="fill:#D7F7E4;stroke:#CCCCDE;stroke-width:3;"></path>
		<path d="M187.832,120.105c-0.268,0-0.53,0.012-0.795,0.018
			c-4.333-6.784-11.563-11.772-20.103-13.483c6.755,1.695,12.447,5.804,15.941,11.276c0.228-0.005,3.337,5.359,3.562,5.359
			c14.692,0,21.525,7.914,21.525,21.601c0,9.513-3.568,15.574-12.01,19.729c-1.617,12.239-12.813,21.72-26.389,21.72
			c-8.257,0-15.643-3.505-20.521-9.015c-0.815,0.063-1.644,0.106-2.479,0.106c-14.688,0-26.226-6.961-26.226-20.646
			c0-9.219,4.125-13.758,11.629-19.229c-0.2-1.186-1.033-11.614,1.747-14.396c6.611-6.611,9.604-12.291,15.519-15.228
			c-11.604,4.174-19.841,14.659-19.841,26.942c0,0.205,0.013,0.414,0.019,0.621c-9.361,4.968-15.681,14.34-15.681,25.097
			c0,15.946,13.875,28.882,30.992,28.882c0.979,0,1.938-0.049,2.886-0.131c5.688,6.416,14.291,10.501,23.914,10.501
			c15.819,0,28.859-11.047,30.747-25.31c9.845-4.84,16.549-14.459,16.549-25.547C218.823,133.031,204.948,120.105,187.832,120.105z" style="opacity:0.1;fill:#6E6E96;enable-background:new    ;"></path>
		<path d="M143.721,165.641c0,0,16.049,3.14,16.049,18.847
			c0,0,4.322,26.684-12.378,45.559h38.564c-0.38-0.53-33.685-45.021,3.379-71.468C166.729,171.492,143.721,165.641,143.721,165.641z" style="fill:#EDE3DA;stroke:#CCCCDE;stroke-width:3;"></path>
		<g>
			<path d="M153.885,134.139" style="fill:#D57E58;"></path>
		</g>
		<path d="M179.716,165.598c0,0-24.351,31.439-5.636,64.444h11.876
			C185.956,230.042,161.245,195.506,179.716,165.598z" style="opacity:0.11;fill:#6E6E96;enable-background:new    ;"></path>
	</g>
	<g style="display:inline;">
		<path d="M150.415,151.09c0-13.098-11.395-23.708-25.443-23.708
			c-0.221,0-0.437,0.011-0.657,0.015c-4.432-6.942-12.569-11.602-21.877-11.602c-14.051,0-25.441,10.616-25.441,23.707
			c0,0.172,0.01,0.34,0.014,0.508c-7.688,4.081-12.871,11.771-12.871,20.607c0,13.095,11.393,23.705,25.447,23.705
			c0.799,0,1.585-0.036,2.369-0.101c4.667,5.263,11.729,8.621,19.632,8.621c12.989,0,23.696-9.069,25.244-20.776
			C144.906,168.088,150.415,160.189,150.415,151.09z" style="fill:#D7F7E4;stroke:#CCCCDE;stroke-width:3;"></path>
		<path d="M124.544,126.529c-0.219,0-0.437,0.009-0.652,0.016
			c-3.556-5.57-9.495-9.665-16.502-11.07c5.545,1.39,10.218,4.763,13.088,9.255c0.188-0.004,2.739,4.399,2.931,4.399
			c12.055,0,17.668,6.496,17.668,17.729c0,7.812-2.932,12.789-9.855,16.199c-1.328,10.051-10.517,17.832-21.663,17.832
			c-6.778,0-12.842-2.886-16.848-7.402c-0.669,0.061-1.349,0.094-2.031,0.094c-12.06,0-21.531-5.717-21.531-16.95
			c0-7.565,3.387-11.293,9.546-15.782c-0.164-0.979-0.848-9.537,1.438-11.815c5.427-5.429,7.885-10.09,12.739-12.5
			c-9.531,3.426-16.292,12.034-16.292,22.119c0,0.172,0.014,0.341,0.019,0.507c-7.691,4.077-12.872,11.773-12.872,20.609
			c0,13.093,11.395,23.707,25.445,23.707c0.798,0,1.588-0.041,2.368-0.104c4.667,5.268,11.731,8.625,19.634,8.625
			c12.987,0,23.691-9.069,25.249-20.78c8.075-3.975,13.584-11.868,13.584-20.97C149.99,137.145,138.597,126.529,124.544,126.529z" style="opacity:0.1;fill:#6E6E96;enable-background:new    ;"></path>
		<path d="M88.329,163.912c0,0,13.175,2.58,13.175,15.477
			c0,0,3.548,21.896-10.166,37.401h31.664c-0.315-0.438-27.658-36.962,2.771-58.677C107.22,168.714,88.329,163.912,88.329,163.912z" style="fill:#EDE3DA;stroke:#CCCCDE;stroke-width:3;"></path>
		<g>
			<path d="M96.675,138.05" style="fill:#D57E58;"></path>
		</g>
		<path d="M117.878,163.875c0,0-19.99,25.811-4.621,52.91h9.75
			C123.005,216.785,102.716,188.43,117.878,163.875z" style="opacity:0.11;fill:#6E6E96;enable-background:new    ;"></path>
	</g>
	<g style="display:inline;">
		<path d="M253.299,174.247c0-11.843-10.306-21.444-23.02-21.444
			c-0.193,0-0.39,0.008-0.588,0.016c-4.015-6.282-11.373-10.495-19.788-10.495c-12.713,0-23.013,9.602-23.013,21.446
			c0,0.154,0.012,0.304,0.016,0.459c-6.951,3.693-11.646,10.652-11.646,18.646c0,11.846,10.299,21.447,23.012,21.447
			c0.725,0,1.438-0.039,2.141-0.101c4.22,4.767,10.611,7.805,17.764,7.805c11.749,0,21.435-8.204,22.833-18.799
			C248.314,189.626,253.299,182.482,253.299,174.247z" style="fill:#D7F7E4;stroke:#CCCCDE;stroke-width:3;"></path>
		<path d="M229.894,152.027c-0.197,0-0.393,0.015-0.59,0.019
			c-3.218-5.036-8.583-8.739-14.929-10.015c5.02,1.259,9.243,4.31,11.839,8.373c0.169-0.004,2.475,3.979,2.646,3.979
			c10.908,0,15.98,5.875,15.98,16.043c0,7.063-2.646,11.568-8.914,14.653c-1.201,9.09-9.514,16.133-19.597,16.133
			c-6.139,0-11.616-2.611-15.242-6.695c-0.605,0.053-1.219,0.082-1.837,0.082c-10.908,0-19.479-5.171-19.479-15.332
			c0-6.85,3.061-10.218,8.64-14.283c-0.149-0.881-0.772-8.621,1.299-10.69c4.906-4.909,7.137-9.13,11.522-11.308
			c-8.614,3.098-14.729,10.887-14.729,20.011c0,0.149,0.011,0.302,0.015,0.459c-6.953,3.69-11.646,10.655-11.646,18.646
			c0,11.842,10.304,21.444,23.018,21.444c0.723,0,1.438-0.032,2.138-0.099c4.226,4.767,10.616,7.805,17.763,7.805
			c11.751,0,21.434-8.211,22.84-18.8c7.303-3.593,12.291-10.733,12.291-18.97C252.909,161.635,242.607,152.027,229.894,152.027z" style="opacity:0.1;fill:#6E6E96;enable-background:new    ;"></path>
		<path d="M197.134,185.846c0,0,11.919,2.336,11.919,13.996
			c0,0,3.209,19.813-9.196,33.836H228.5c-0.283-0.394-25.015-33.438,2.511-53.078C214.224,190.195,197.134,185.846,197.134,185.846z" style="fill:#EDE3DA;stroke:#CCCCDE;stroke-width:3;"></path>
		<g>
			<path d="M204.684,162.453" style="fill:#D57E58;"></path>
		</g>
		<path d="M223.865,185.814c0,0-18.084,23.351-4.182,47.862h8.815
			C228.499,233.678,210.147,208.027,223.865,185.814z" style="opacity:0.11;fill:#6E6E96;enable-background:new    ;"></path>
	</g>
	<g style="display:inline;">
		<path d="M95.681,172.473c0-12.58-10.945-22.776-24.447-22.776
			c-0.215,0-0.42,0.008-0.626,0.014c-4.264-6.671-12.08-11.144-21.02-11.144c-13.499,0-24.448,10.201-24.448,22.774
			c0,0.165,0.01,0.323,0.014,0.489c-7.387,3.916-12.367,11.314-12.367,19.798c0,12.575,10.943,22.774,24.446,22.774
			c0.769,0,1.526-0.037,2.274-0.101c4.484,5.06,11.271,8.288,18.864,8.288c12.479,0,22.768-8.714,24.257-19.966
			C90.39,188.807,95.681,181.219,95.681,172.473z" style="fill:#D7F7E4;stroke:#CCCCDE;stroke-width:3;"></path>
		<path d="M70.822,148.874c-0.209,0-0.417,0.01-0.62,0.019
			c-3.42-5.354-9.123-9.287-15.856-10.641c5.327,1.338,9.817,4.58,12.575,8.896c0.178-0.004,2.625,4.229,2.81,4.229
			c11.587,0,16.978,6.242,16.978,17.039c0,7.504-2.813,12.287-9.472,15.564c-1.274,9.655-10.104,17.131-20.812,17.131
			c-6.52,0-12.338-2.769-16.188-7.109c-0.644,0.055-1.293,0.087-1.952,0.087c-11.584,0-20.688-5.491-20.688-16.286
			c0-7.27,3.253-10.853,9.174-15.171c-0.159-0.938-0.815-9.166,1.379-11.356c5.214-5.217,7.576-9.693,12.242-12.012
			c-9.155,3.293-15.652,11.563-15.652,21.25c0,0.164,0.011,0.324,0.016,0.487c-7.384,3.92-12.368,11.313-12.368,19.804
			c0,12.574,10.941,22.774,24.448,22.774c0.767,0,1.524-0.038,2.274-0.103c4.485,5.061,11.271,8.293,18.864,8.293
			c12.479,0,22.766-8.716,24.252-19.97c7.765-3.817,13.053-11.412,13.053-20.153C95.272,159.072,84.325,148.874,70.822,148.874z" style="opacity:0.1;fill:#6E6E96;enable-background:new    ;"></path>
		<path d="M36.028,184.791c0,0,12.66,2.479,12.66,14.868
			c0,0,3.409,21.044-9.771,35.935h30.424c-0.301-0.421-26.571-35.518,2.665-56.383C54.177,189.406,36.028,184.791,36.028,184.791z" style="fill:#EDE3DA;stroke:#CCCCDE;stroke-width:3;"></path>
		<g>
			<path d="M44.045,159.939" style="fill:#D57E58;"></path>
		</g>
		<path d="M64.42,184.757c0,0-19.209,24.802-4.445,50.837h9.368
			C69.343,235.596,49.85,208.354,64.42,184.757z" style="opacity:0.11;fill:#6E6E96;enable-background:new    ;"></path>
	</g>
</g>
<g style="opacity:0.39;" id="Layer_4_1_">
	<path d="M249.184,113.265c0-38.287-31.115-69.323-69.49-69.323c-0.596,0-1.188,0.028-1.777,0.043
		c-12.119-20.31-34.332-33.929-59.75-33.929c-38.378,0-69.491,31.038-69.491,69.325c0,0.498,0.028,0.986,0.04,1.483
		c0,20.728-35.155,34.437-35.155,60.261c0,38.284,31.113,69.318,69.491,69.318c2.182,0,4.338-0.112,6.471-0.309
		c28.15,0,32.03,12.328,53.617,12.328c35.477,0,64.713-13.629,68.944-47.873C221.853,150.689,249.184,139.88,249.184,113.265z" style="fill:#FFBDBD;"></path>
</g>
<g id="Layer_8">
</g>
<g id="Layer_2_1_">
</g>
<g id="Layer_1_1_">
	<g style="display:none;" id="Layer_3_5_">
		<g style="display:inline;">
			<path d="M85.089,124.891c0-10.819-9.413-19.591-21.025-19.591
				c-0.181,0-0.354,0.007-0.539,0.013c-3.666-5.741-10.389-9.587-18.078-9.587c-11.606,0-21.021,8.77-21.021,19.591
				c0,0.139,0.008,0.277,0.011,0.417c-6.349,3.372-10.635,9.732-10.635,17.03c0,10.819,9.413,19.59,21.021,19.59
				c0.659,0,1.312-0.03,1.958-0.088c3.856,4.354,9.692,7.129,16.227,7.129c10.729,0,19.581-7.496,20.856-17.172
				C80.538,138.939,85.089,132.412,85.089,124.891z" style="fill:#D7F7E4;stroke:#CCCCDE;stroke-width:3;"></path>
			<path d="M63.71,104.595c-0.186,0-0.359,0.009-0.538,0.014
				c-2.939-4.603-7.845-7.986-13.637-9.147c4.583,1.15,8.438,3.938,10.812,7.65c0.155-0.004,2.261,3.637,2.417,3.637
				c9.964,0,14.604,5.369,14.604,14.653c0,6.453-2.417,10.565-8.146,13.383c-1.098,8.307-8.69,14.736-17.9,14.736
				c-5.604,0-10.607-2.379-13.922-6.111c-0.554,0.047-1.107,0.07-1.68,0.07c-9.965,0-17.792-4.728-17.792-14.004
				c0-6.257,2.798-9.334,7.891-13.043c-0.136-0.801-0.696-7.881,1.188-9.767c4.479-4.484,6.517-8.337,10.528-10.33
				c-7.874,2.831-13.467,9.944-13.467,18.282c0,0.137,0.014,0.279,0.017,0.418c-6.354,3.372-10.642,9.728-10.642,17.026
				c0,10.815,9.413,19.594,21.025,19.594c0.662,0,1.313-0.033,1.959-0.092c3.856,4.352,9.691,7.129,16.223,7.129
				c10.732,0,19.581-7.498,20.86-17.176c6.675-3.281,11.229-9.813,11.229-17.332C84.736,113.368,75.323,104.595,63.71,104.595z" style="opacity:0.1;fill:#6E6E96;enable-background:new    ;"></path>
			<path d="M33.785,135.488c0,0,10.888,2.131,10.888,12.785
				c0,0,2.931,18.1-8.399,30.905h26.165c-0.259-0.362-22.854-30.555,2.292-48.489C49.395,139.458,33.785,135.488,33.785,135.488z" style="fill:#EDE3DA;stroke:#CCCCDE;stroke-width:3;"></path>
			<g>
				<path d="M40.68,114.115" style="fill:#D57E58;"></path>
			</g>
			<path d="M58.204,135.457c0,0-16.521,21.33-3.823,43.725h8.058
				C62.438,179.18,45.674,155.75,58.204,135.457z" style="opacity:0.11;fill:#6E6E96;enable-background:new    ;"></path>
		</g>
		<g style="display:inline;">
			<path d="M244.023,123.691c0-10.132-8.812-18.346-19.688-18.346
				c-0.171,0-0.338,0.007-0.505,0.012c-3.438-5.375-9.729-8.979-16.935-8.979c-10.874,0-19.688,8.214-19.688,18.346
				c0,0.131,0.009,0.262,0.011,0.391c-5.945,3.158-9.96,9.112-9.96,15.948c0,10.129,8.816,18.35,19.688,18.35
				c0.612,0,1.229-0.029,1.835-0.082c3.604,4.068,9.069,6.676,15.188,6.676c10.048,0,18.337-7.021,19.534-16.082
				C239.762,136.846,244.023,130.734,244.023,123.691z" style="fill:#D7F7E4;stroke:#CCCCDE;stroke-width:3;"></path>
			<path d="M224.003,104.685c-0.173,0-0.335,0.008-0.505,0.012
				c-2.751-4.312-7.354-7.479-12.771-8.565c4.291,1.076,7.906,3.687,10.127,7.163c0.146-0.003,2.117,3.405,2.27,3.405
				c9.33,0,13.671,5.029,13.671,13.723c0,6.046-2.271,9.894-7.626,12.537c-1.028,7.774-8.146,13.795-16.77,13.795
				c-5.247,0-9.938-2.229-13.039-5.726c-0.521,0.045-1.041,0.067-1.568,0.067c-9.334,0-16.662-4.429-16.662-13.116
				c0-5.856,2.62-8.745,7.39-12.218c-0.13-0.755-0.656-7.38,1.11-9.145c4.191-4.2,6.104-7.807,9.854-9.672
				c-7.373,2.649-12.604,9.312-12.604,17.117c0,0.13,0.005,0.256,0.011,0.392c-5.945,3.156-9.962,9.109-9.962,15.945
				c0,10.129,8.815,18.347,19.688,18.347c0.617,0,1.229-0.031,1.838-0.084c3.605,4.075,9.07,6.676,15.188,6.676
				c10.05,0,18.336-7.019,19.535-16.084c6.25-3.073,10.51-9.183,10.51-16.228C243.693,112.899,234.878,104.685,224.003,104.685z" style="opacity:0.1;fill:#6E6E96;enable-background:new    ;"></path>
			<path d="M195.98,133.613c0,0,10.196,1.996,10.196,11.975
				c0,0,2.746,16.947-7.866,28.939h24.503c-0.243-0.334-21.396-28.604,2.146-45.402C210.597,137.332,195.98,133.613,195.98,133.613z" style="fill:#EDE3DA;stroke:#CCCCDE;stroke-width:3;"></path>
			<g>
				<path d="M202.438,113.601" style="fill:#D57E58;"></path>
			</g>
			<path d="M218.847,133.585c0,0-15.47,19.976-3.578,40.94h7.546
				C222.813,174.527,207.113,152.587,218.847,133.585z" style="opacity:0.11;fill:#6E6E96;enable-background:new    ;"></path>
		</g>
		<g style="display:inline;">
			<path d="M209.678,125.337c0-15.556-13.532-28.161-30.225-28.161
				c-0.267,0-0.521,0.011-0.774,0.018c-5.271-8.251-14.935-13.784-25.987-13.784c-16.688,0-30.227,12.61-30.227,28.164
				c0,0.2,0.012,0.399,0.016,0.604c-9.129,4.849-15.291,13.985-15.291,24.477c0,15.555,13.535,28.166,30.229,28.166
				c0.948,0,1.888-0.049,2.812-0.131c5.545,6.26,13.938,10.248,23.32,10.248c15.431,0,28.15-10.773,29.99-24.688
				C203.136,145.535,209.678,136.15,209.678,125.337z" style="fill:#D7F7E4;stroke:#CCCCDE;stroke-width:3;"></path>
			<path d="M178.945,96.162c-0.259,0-0.517,0.011-0.771,0.019
				c-4.229-6.617-11.276-11.482-19.604-13.15c6.595,1.652,12.144,5.66,15.552,10.997c0.224-0.005,3.252,5.228,3.476,5.228
				c14.325,0,20.988,7.718,20.988,21.064c0,9.276-3.479,15.188-11.709,19.242c-1.578,11.936-12.495,21.182-25.734,21.182
				c-8.058,0-15.255-3.422-20.013-8.793c-0.797,0.068-1.604,0.107-2.415,0.107c-14.326,0-25.577-6.787-25.577-20.14
				c0-8.983,4.021-13.414,11.341-18.751c-0.192-1.155-1.008-11.327,1.703-14.04c6.447-6.447,9.368-11.985,15.136-14.849
				c-11.313,4.07-19.352,14.296-19.352,26.276c0,0.201,0.011,0.4,0.017,0.605c-9.129,4.846-15.291,13.982-15.291,24.479
				c0,15.555,13.533,28.164,30.229,28.164c0.951,0,1.888-0.048,2.812-0.127c5.544,6.26,13.938,10.242,23.321,10.242
				c15.429,0,28.146-10.771,29.988-24.688c9.596-4.722,16.137-14.104,16.137-24.912C209.171,108.769,195.639,96.162,178.945,96.162z" style="opacity:0.1;fill:#6E6E96;enable-background:new    ;"></path>
			<path d="M135.926,140.568c0,0,15.652,3.062,15.652,18.385
				c0,0,4.215,26.021-12.076,44.43h37.614c-0.372-0.52-32.854-43.908,3.296-69.699C158.365,146.279,135.926,140.568,135.926,140.568
				z" style="fill:#EDE3DA;stroke:#CCCCDE;stroke-width:3;"></path>
			<g>
				<path d="M145.838,109.846" style="fill:#D57E58;"></path>
			</g>
			<path d="M171.029,140.527c0,0-23.742,30.662-5.49,62.852h11.583
				C177.116,203.378,153.017,169.697,171.029,140.527z" style="opacity:0.11;fill:#6E6E96;enable-background:new    ;"></path>
		</g>
		<g style="display:inline;">
			<path d="M142.454,126.378c0-12.77-11.11-23.122-24.815-23.122
				c-0.213,0-0.424,0.01-0.636,0.016c-4.326-6.774-12.26-11.315-21.336-11.315c-13.704,0-24.815,10.352-24.815,23.12
				c0,0.167,0.011,0.331,0.02,0.495c-7.496,3.979-12.559,11.482-12.559,20.099c0,12.771,11.109,23.121,24.815,23.121
				c0.779,0,1.549-0.039,2.311-0.101c4.558,5.134,11.438,8.408,19.146,8.408c12.668,0,23.104-8.85,24.62-20.268
				C137.082,142.958,142.454,135.255,142.454,126.378z" style="fill:#D7F7E4;stroke:#CCCCDE;stroke-width:3;"></path>
			<path d="M117.223,102.426c-0.215,0-0.424,0.008-0.637,0.014
				c-3.469-5.432-9.258-9.425-16.094-10.796c5.403,1.357,9.964,4.648,12.766,9.028c0.181-0.005,2.667,4.292,2.852,4.292
				c11.766,0,17.231,6.336,17.231,17.293c0,7.617-2.854,12.472-9.61,15.798c-1.295,9.799-10.258,17.392-21.127,17.392
				c-6.616,0-12.521-2.812-16.432-7.22c-0.653,0.061-1.314,0.09-1.982,0.09c-11.761,0-20.997-5.57-20.997-16.525
				c0-7.379,3.307-11.02,9.313-15.396c-0.16-0.948-0.827-9.299,1.396-11.524c5.292-5.293,7.69-9.84,12.43-12.191
				c-9.292,3.341-15.894,11.735-15.894,21.572c0,0.166,0.013,0.33,0.02,0.495c-7.497,3.977-12.56,11.479-12.56,20.101
				c0,12.77,11.11,23.115,24.815,23.115c0.78,0,1.548-0.036,2.31-0.104c4.558,5.14,11.439,8.41,19.147,8.41
				c12.667,0,23.104-8.846,24.621-20.268c7.878-3.873,13.25-11.575,13.25-20.448C142.037,112.778,130.927,102.426,117.223,102.426z" style="opacity:0.1;fill:#6E6E96;enable-background:new    ;"></path>
			<path d="M81.904,138.882c0,0,12.854,2.517,12.854,15.093
				c0,0,3.46,21.358-9.915,36.479h30.88c-0.307-0.429-26.973-36.052,2.705-57.229C100.327,143.57,81.904,138.882,81.904,138.882z" style="fill:#EDE3DA;stroke:#CCCCDE;stroke-width:3;"></path>
			<g>
				<path d="M90.042,113.661" style="fill:#D57E58;"></path>
			</g>
			<path d="M110.723,138.85c0,0-19.497,25.172-4.511,51.604h9.509
				C115.722,190.451,95.935,162.796,110.723,138.85z" style="opacity:0.11;fill:#6E6E96;enable-background:new    ;"></path>
		</g>
		<g style="display:inline;">
			<path d="M242.792,148.964c0-11.553-10.051-20.913-22.448-20.913
				c-0.188,0-0.379,0.008-0.57,0.014c-3.919-6.129-11.092-10.231-19.301-10.231c-12.396,0-22.444,9.358-22.444,20.915
				c0,0.146,0.017,0.297,0.019,0.443c-6.778,3.604-11.355,10.396-11.355,18.188c0,11.562,10.047,20.92,22.444,20.92
				c0.705,0,1.401-0.031,2.086-0.103c4.117,4.651,10.354,7.614,17.323,7.614c11.459,0,20.899-8.006,22.271-18.336
				C237.932,163.962,242.792,156.998,242.792,148.964z" style="fill:#D7F7E4;stroke:#CCCCDE;stroke-width:3;"></path>
			<path d="M219.967,127.296c-0.193,0-0.383,0.009-0.575,0.015
				c-3.139-4.914-8.375-8.521-14.559-9.768c4.894,1.229,9.015,4.203,11.547,8.166c0.163-0.004,2.413,3.885,2.579,3.885
				c10.639,0,15.586,5.729,15.586,15.646c0,6.895-2.579,11.278-8.694,14.291c-1.172,8.862-9.277,15.731-19.105,15.731
				c-5.985,0-11.329-2.545-14.864-6.531c-0.59,0.057-1.189,0.082-1.793,0.082c-10.644,0-18.995-5.043-18.995-14.953
				c0-6.678,2.979-9.963,8.424-13.93c-0.146-0.858-0.753-8.41,1.268-10.426c4.786-4.789,6.956-8.904,11.237-11.028
				c-8.398,3.021-14.371,10.616-14.371,19.514c0,0.147,0.019,0.298,0.021,0.449c-6.78,3.599-11.359,10.392-11.359,18.181
				c0,11.551,10.049,20.916,22.448,20.916c0.705,0,1.396-0.031,2.088-0.097c4.119,4.646,10.352,7.607,17.32,7.607
				c11.459,0,20.898-8.004,22.271-18.334c7.127-3.502,11.99-10.474,11.99-18.502C242.413,136.66,232.365,127.296,219.967,127.296z" style="opacity:0.1;fill:#6E6E96;enable-background:new    ;"></path>
			<path d="M188.017,160.277c0,0,11.625,2.271,11.625,13.649
				c0,0,3.13,19.316-8.969,32.99h27.936c-0.271-0.383-24.396-32.604,2.447-51.769C204.683,164.518,188.017,160.277,188.017,160.277z" style="fill:#EDE3DA;stroke:#CCCCDE;stroke-width:3;"></path>
			<g>
				<path d="M195.379,137.46" style="fill:#D57E58;"></path>
			</g>
			<path d="M214.088,160.246c0,0-17.637,22.771-4.082,46.678h8.603
				C218.608,206.921,200.71,181.91,214.088,160.246z" style="opacity:0.11;fill:#6E6E96;enable-background:new    ;"></path>
		</g>
		<g style="display:inline;">
			<path d="M89.074,147.232c0-12.271-10.682-22.213-23.849-22.213
				c-0.206,0-0.402,0.006-0.605,0.012c-4.158-6.508-11.781-10.866-20.5-10.866c-13.167,0-23.85,9.944-23.85,22.211
				c0,0.158,0.016,0.313,0.02,0.474c-7.201,3.823-12.063,11.039-12.063,19.315c0,12.267,10.675,22.213,23.843,22.213
				c0.749,0,1.488-0.039,2.226-0.099c4.374,4.935,10.991,8.084,18.396,8.084c12.172,0,22.206-8.5,23.656-19.476
				C83.913,163.164,89.074,155.762,89.074,147.232z" style="fill:#D7F7E4;stroke:#CCCCDE;stroke-width:3;"></path>
			<path d="M64.831,124.219c-0.205,0-0.407,0.008-0.61,0.012
				c-3.333-5.213-8.896-9.057-15.464-10.373c5.196,1.304,9.574,4.466,12.264,8.675c0.174-0.004,2.563,4.123,2.74,4.123
				c11.3,0,16.556,6.09,16.556,16.617c0,7.313-2.735,11.979-9.23,15.18c-1.245,9.42-9.855,16.709-20.305,16.709
				c-6.354,0-12.028-2.701-15.783-6.936c-0.627,0.053-1.268,0.086-1.905,0.086c-11.3,0-20.176-5.355-20.176-15.886
				c0-7.092,3.173-10.584,8.941-14.793c-0.148-0.911-0.795-8.938,1.351-11.075c5.086-5.084,7.389-9.457,11.938-11.71
				c-8.929,3.209-15.266,11.276-15.266,20.722c0,0.158,0.009,0.315,0.013,0.477c-7.202,3.82-12.061,11.035-12.061,19.314
				c0,12.264,10.674,22.209,23.843,22.209c0.75,0,1.489-0.035,2.221-0.096c4.374,4.932,10.991,8.084,18.396,8.084
				c12.171,0,22.205-8.5,23.649-19.478c7.569-3.729,12.73-11.129,12.73-19.649C88.674,134.164,77.999,124.219,64.831,124.219z" style="opacity:0.1;fill:#6E6E96;enable-background:new    ;"></path>
			<path d="M30.896,159.25c0,0,12.352,2.416,12.352,14.5
				c0,0,3.319,20.523-9.525,35.045h29.67c-0.294-0.406-25.917-34.639,2.599-54.984C48.596,163.75,30.896,159.25,30.896,159.25z" style="fill:#EDE3DA;stroke:#CCCCDE;stroke-width:3;"></path>
			<g>
				<path d="M38.714,135.012" style="fill:#D57E58;"></path>
			</g>
			<path d="M58.585,159.214c0,0-18.734,24.188-4.335,49.578h9.137
				C63.388,208.792,44.376,182.227,58.585,159.214z" style="opacity:0.11;fill:#6E6E96;enable-background:new    ;"></path>
		</g>
	</g>
	<g style="display:none;" id="Layer_3_4_">
		<g style="display:inline;">
			<path d="M86.025,124.891c0-10.819-9.413-19.591-21.021-19.591
				c-0.188,0-0.36,0.007-0.539,0.013c-3.666-5.741-10.389-9.587-18.078-9.587c-11.612,0-21.026,8.77-21.026,19.591
				c0,0.139,0.014,0.277,0.017,0.417c-6.354,3.372-10.641,9.732-10.641,17.03c0,10.819,9.413,19.59,21.025,19.59
				c0.66,0,1.313-0.03,1.958-0.088c3.857,4.354,9.693,7.129,16.222,7.129c10.734,0,19.582-7.496,20.862-17.172
				C81.474,138.939,86.025,132.412,86.025,124.891z" style="fill:#D7F7E4;stroke:#CCCCDE;stroke-width:3;"></path>
			<path d="M64.646,104.595c-0.181,0-0.354,0.009-0.539,0.014
				c-2.938-4.603-7.844-7.986-13.637-9.147c4.583,1.15,8.443,3.938,10.816,7.65c0.148-0.004,2.261,3.637,2.417,3.637
				c9.964,0,14.6,5.369,14.6,14.653c0,6.453-2.417,10.565-8.146,13.383c-1.104,8.307-8.691,14.736-17.9,14.736
				c-5.606,0-10.612-2.379-13.922-6.111c-0.553,0.047-1.113,0.07-1.685,0.07c-9.965,0-17.792-4.728-17.792-14.004
				c0-6.257,2.804-9.334,7.896-13.043c-0.136-0.801-0.702-7.881,1.186-9.767c4.484-4.484,6.521-8.337,10.527-10.33
				c-7.874,2.831-13.461,9.944-13.461,18.282c0,0.137,0.008,0.279,0.011,0.418c-6.351,3.372-10.636,9.728-10.636,17.026
				c0,10.815,9.413,19.594,21.025,19.594c0.656,0,1.312-0.033,1.958-0.092c3.854,4.352,9.688,7.129,16.223,7.129
				c10.729,0,19.58-7.498,20.854-17.176c6.681-3.281,11.229-9.812,11.229-17.332C85.672,113.368,76.259,104.595,64.646,104.595z" style="opacity:0.1;fill:#6E6E96;enable-background:new    ;"></path>
			<path d="M34.721,135.488c0,0,10.888,2.131,10.888,12.785
				c0,0,2.937,18.1-8.396,30.905h26.165c-0.259-0.362-22.854-30.553,2.292-48.489C50.33,139.458,34.721,135.488,34.721,135.488z" style="fill:#EDE3DA;stroke:#CCCCDE;stroke-width:3;"></path>
			<g>
				<path d="M41.615,114.115" style="fill:#D57E58;"></path>
			</g>
			<path d="M59.14,135.457c0,0-16.521,21.33-3.822,43.725h8.063
				C63.374,179.18,46.609,155.75,59.14,135.457z" style="opacity:0.11;fill:#6E6E96;enable-background:new    ;"></path>
		</g>
		<g style="display:inline;">
			<path d="M244.96,123.691c0-10.132-8.815-18.346-19.689-18.346
				c-0.171,0-0.337,0.007-0.505,0.012c-3.433-5.375-9.728-8.979-16.929-8.979c-10.874,0-19.69,8.214-19.69,18.346
				c0,0.131,0.015,0.262,0.018,0.391c-5.946,3.158-9.961,9.112-9.961,15.948c0,10.129,8.812,18.35,19.688,18.35
				c0.618,0,1.229-0.029,1.834-0.082c3.61,4.068,9.075,6.676,15.191,6.676c10.049,0,18.337-7.021,19.528-16.082
				C240.698,136.846,244.96,130.734,244.96,123.691z" style="fill:#D7F7E4;stroke:#CCCCDE;stroke-width:3;"></path>
			<path d="M224.938,104.685c-0.172,0-0.335,0.008-0.504,0.012
				c-2.752-4.312-7.349-7.479-12.771-8.565c4.291,1.076,7.9,3.687,10.127,7.163c0.145-0.003,2.118,3.405,2.264,3.405
				c9.331,0,13.671,5.029,13.671,13.723c0,6.046-2.265,9.894-7.625,12.537c-1.029,7.774-8.14,13.795-16.765,13.795
				c-5.247,0-9.938-2.229-13.038-5.726c-0.521,0.045-1.041,0.067-1.574,0.067c-9.334,0-16.662-4.429-16.662-13.116
				c0-5.854,2.62-8.738,7.395-12.218c-0.135-0.753-0.656-7.378,1.106-9.143c4.197-4.2,6.104-7.808,9.857-9.674
				c-7.373,2.652-12.605,9.312-12.605,17.117c0,0.13,0.005,0.258,0.017,0.392c-5.946,3.156-9.967,9.111-9.967,15.945
				c0,10.131,8.814,18.347,19.688,18.347c0.619,0,1.229-0.028,1.834-0.082c3.611,4.075,9.076,6.674,15.191,6.674
				c10.05,0,18.336-7.019,19.529-16.082c6.25-3.073,10.516-9.185,10.516-16.229C244.629,112.899,235.813,104.685,224.938,104.685z" style="opacity:0.1;fill:#6E6E96;enable-background:new    ;"></path>
			<path d="M196.916,133.613c0,0,10.191,1.996,10.191,11.975
				c0,0,2.745,16.947-7.861,28.939h24.503c-0.243-0.334-21.401-28.604,2.146-45.402
				C211.532,137.332,196.916,133.613,196.916,133.613z" style="fill:#EDE3DA;stroke:#CCCCDE;stroke-width:3;"></path>
			<g>
				<path d="M203.373,113.601" style="fill:#D57E58;"></path>
			</g>
			<path d="M219.783,133.585c0,0-15.477,19.976-3.579,40.94h7.546
				C223.748,174.527,208.049,152.587,219.783,133.585z" style="opacity:0.11;fill:#6E6E96;enable-background:new    ;"></path>
		</g>
		<g style="display:inline;">
			<path d="M210.615,125.337c0-15.556-13.527-28.161-30.227-28.161
				c-0.26,0-0.518,0.011-0.773,0.018c-5.271-8.251-14.936-13.784-25.982-13.784c-16.692,0-30.229,12.61-30.229,28.164
				c0,0.2,0.018,0.399,0.021,0.604c-9.129,4.849-15.29,13.985-15.29,24.477c0,15.555,13.534,28.166,30.227,28.166
				c0.948,0,1.894-0.049,2.814-0.131c5.546,6.26,13.933,10.248,23.317,10.248c15.434,0,28.147-10.773,29.987-24.688
				C204.071,145.535,210.615,136.15,210.615,125.337z" style="fill:#D7F7E4;stroke:#CCCCDE;stroke-width:3;"></path>
			<path d="M179.881,96.162c-0.259,0-0.521,0.011-0.773,0.019
				c-4.227-6.617-11.271-11.482-19.604-13.15c6.589,1.652,12.138,5.66,15.548,10.997c0.222-0.005,3.25,5.228,3.474,5.228
				c14.325,0,20.989,7.718,20.989,21.064c0,9.276-3.477,15.188-11.71,19.242c-1.578,11.936-12.495,21.182-25.733,21.182
				c-8.058,0-15.256-3.422-20.014-8.793c-0.796,0.068-1.601,0.107-2.415,0.107c-14.326,0-25.577-6.787-25.577-20.14
				c0-8.983,4.022-13.414,11.347-18.751c-0.195-1.155-1.014-11.327,1.698-14.04c6.447-6.447,9.368-11.985,15.141-14.849
				c-11.318,4.07-19.354,14.296-19.354,26.276c0,0.201,0.013,0.4,0.021,0.605c-9.129,4.846-15.291,13.982-15.291,24.479
				c0,15.555,13.527,28.164,30.226,28.164c0.951,0,1.888-0.048,2.814-0.127c5.544,6.26,13.934,10.242,23.315,10.242
				c15.435,0,28.147-10.771,29.988-24.688c9.596-4.722,16.137-14.104,16.137-24.912C210.106,108.769,196.574,96.162,179.881,96.162z" style="opacity:0.1;fill:#6E6E96;enable-background:new    ;"></path>
			<path d="M136.861,140.568c0,0,15.652,3.062,15.652,18.385
				c0,0,4.215,26.02-12.076,44.43h37.615c-0.373-0.52-32.854-43.908,3.295-69.699C159.301,146.279,136.861,140.568,136.861,140.568z" style="fill:#EDE3DA;stroke:#CCCCDE;stroke-width:3;"></path>
			<g>
				<path d="M146.773,109.846" style="fill:#D57E58;"></path>
			</g>
			<path d="M171.965,140.527c0,0-23.748,30.662-5.496,62.852h11.584
				C178.053,203.378,153.952,169.697,171.965,140.527z" style="opacity:0.11;fill:#6E6E96;enable-background:new    ;"></path>
		</g>
		<g style="display:inline;">
			<path d="M143.39,126.378c0-12.77-11.11-23.122-24.812-23.122
				c-0.219,0-0.43,0.01-0.641,0.016c-4.327-6.774-12.261-11.315-21.336-11.315c-13.704,0-24.812,10.352-24.812,23.12
				c0,0.167,0.012,0.331,0.014,0.495c-7.496,3.979-12.553,11.482-12.553,20.099c0,12.771,11.104,23.121,24.812,23.121
				c0.778,0,1.549-0.039,2.313-0.103c4.552,5.136,11.438,8.41,19.146,8.41c12.668,0,23.109-8.85,24.619-20.27
				C138.019,142.958,143.39,135.255,143.39,126.378z" style="fill:#D7F7E4;stroke:#CCCCDE;stroke-width:3;"></path>
			<path d="M118.158,102.426c-0.22,0-0.43,0.008-0.643,0.014
				c-3.468-5.432-9.258-9.425-16.093-10.796c5.409,1.357,9.964,4.648,12.766,9.028c0.187-0.005,2.667,4.292,2.854,4.292
				c11.761,0,17.229,6.336,17.229,17.293c0,7.617-2.854,12.472-9.604,15.798c-1.295,9.799-10.257,17.392-21.127,17.392
				c-6.615,0-12.524-2.812-16.438-7.22c-0.647,0.061-1.312,0.09-1.979,0.09c-11.767,0-20.998-5.57-20.998-16.525
				c0-7.379,3.301-11.02,9.31-15.396c-0.16-0.948-0.827-9.299,1.4-11.524c5.292-5.293,7.688-9.84,12.424-12.191
				c-9.292,3.341-15.888,11.735-15.888,21.572c0,0.166,0.01,0.33,0.014,0.495c-7.497,3.977-12.554,11.479-12.554,20.101
				c0,12.77,11.105,23.115,24.812,23.115c0.78,0,1.548-0.036,2.313-0.104c4.552,5.14,11.438,8.41,19.146,8.41
				c12.667,0,23.107-8.846,24.621-20.268c7.877-3.873,13.249-11.575,13.249-20.448C142.973,112.778,131.862,102.426,118.158,102.426
				z" style="opacity:0.1;fill:#6E6E96;enable-background:new    ;"></path>
			<path d="M82.84,138.882c0,0,12.85,2.517,12.85,15.093
				c0,0,3.46,21.358-9.915,36.479h30.882c-0.309-0.429-26.975-36.052,2.704-57.229C101.263,143.57,82.84,138.882,82.84,138.882z" style="fill:#EDE3DA;stroke:#CCCCDE;stroke-width:3;"></path>
			<g>
				<path d="M90.978,113.661" style="fill:#D57E58;"></path>
			</g>
			<path d="M111.659,138.85c0,0-19.497,25.172-4.517,51.604h9.516
				C116.658,190.451,96.871,162.796,111.659,138.85z" style="opacity:0.11;fill:#6E6E96;enable-background:new    ;"></path>
		</g>
		<g style="display:inline;">
			<path d="M243.728,148.964c0-11.553-10.051-20.913-22.448-20.913
				c-0.188,0-0.38,0.008-0.565,0.014c-3.917-6.129-11.093-10.231-19.3-10.231c-12.397,0-22.445,9.358-22.445,20.915
				c0,0.146,0.011,0.297,0.013,0.443c-6.774,3.604-11.354,10.396-11.354,18.188c0,11.561,10.047,20.918,22.439,20.918
				c0.704,0,1.4-0.031,2.086-0.101c4.118,4.649,10.354,7.612,17.323,7.612c11.459,0,20.904-8.004,22.271-18.336
				C238.868,163.962,243.728,156.998,243.728,148.964z" style="fill:#D7F7E4;stroke:#CCCCDE;stroke-width:3;"></path>
			<path d="M220.902,127.296c-0.188,0-0.383,0.009-0.569,0.015
				c-3.144-4.914-8.374-8.521-14.563-9.768c4.896,1.229,9.021,4.203,11.547,8.166c0.163-0.004,2.413,3.885,2.58,3.885
				c10.644,0,15.585,5.729,15.585,15.646c0,6.895-2.579,11.278-8.688,14.291c-1.171,8.862-9.278,15.731-19.111,15.731
				c-5.983,0-11.329-2.545-14.863-6.531c-0.591,0.057-1.188,0.082-1.793,0.082c-10.639,0-18.996-5.043-18.996-14.953
				c0-6.678,2.985-9.963,8.428-13.93c-0.146-0.858-0.753-8.41,1.268-10.426c4.788-4.789,6.958-8.902,11.24-11.028
				c-8.404,3.021-14.372,10.616-14.372,19.514c0,0.147,0.013,0.298,0.016,0.449c-6.777,3.599-11.354,10.392-11.354,18.181
				c0,11.551,10.05,20.914,22.444,20.914c0.705,0,1.399-0.031,2.09-0.095c4.117,4.646,10.353,7.607,17.318,7.607
				c11.458,0,20.903-8.004,22.271-18.334c7.126-3.504,11.982-10.474,11.982-18.502C243.35,136.66,233.301,127.296,220.902,127.296z" style="opacity:0.1;fill:#6E6E96;enable-background:new    ;"></path>
			<path d="M188.953,160.277c0,0,11.624,2.271,11.624,13.649
				c0,0,3.13,19.316-8.975,32.99h27.938c-0.276-0.383-24.398-32.604,2.446-51.769C205.619,164.518,188.953,160.277,188.953,160.277z" style="fill:#EDE3DA;stroke:#CCCCDE;stroke-width:3;"></path>
			<g>
				<path d="M196.314,137.46" style="fill:#D57E58;"></path>
			</g>
			<path d="M215.023,160.246c0,0-17.637,22.771-4.081,46.678h8.604
				C219.544,206.921,201.646,181.91,215.023,160.246z" style="opacity:0.11;fill:#6E6E96;enable-background:new    ;"></path>
		</g>
		<g style="display:inline;">
			<path d="M90.009,147.232c0-12.271-10.675-22.213-23.843-22.213
				c-0.206,0-0.408,0.006-0.611,0.012c-4.158-6.508-11.781-10.868-20.5-10.868c-13.167,0-23.844,9.946-23.844,22.213
				c0,0.158,0.011,0.313,0.014,0.474c-7.201,3.823-12.062,11.039-12.062,19.315c0,12.267,10.675,22.213,23.843,22.213
				c0.749,0,1.488-0.039,2.22-0.099c4.374,4.935,10.991,8.084,18.397,8.084c12.171,0,22.205-8.5,23.649-19.476
				C84.849,163.164,90.009,155.762,90.009,147.232z" style="fill:#D7F7E4;stroke:#CCCCDE;stroke-width:3;"></path>
			<path d="M65.766,124.219c-0.205,0-0.407,0.008-0.609,0.012
				c-3.328-5.213-8.896-9.057-15.465-10.373c5.197,1.304,9.574,4.466,12.271,8.675c0.174-0.004,2.562,4.123,2.734,4.123
				c11.306,0,16.562,6.09,16.562,16.617c0,7.313-2.741,11.979-9.236,15.18c-1.245,9.42-9.854,16.709-20.3,16.709
				c-6.354,0-12.033-2.701-15.788-6.936c-0.627,0.053-1.261,0.086-1.904,0.086c-11.3,0-20.177-5.355-20.177-15.886
				c0-7.092,3.173-10.584,8.947-14.793c-0.154-0.911-0.795-8.938,1.345-11.075c5.086-5.084,7.392-9.457,11.939-11.71
				c-8.934,3.209-15.271,11.276-15.271,20.724c0,0.158,0.009,0.315,0.019,0.477c-7.202,3.82-12.063,11.033-12.063,19.313
				c0,12.268,10.674,22.211,23.843,22.211c0.75,0,1.489-0.033,2.227-0.099c4.374,4.938,10.984,8.084,18.396,8.084
				c12.171,0,22.204-8.498,23.655-19.473c7.569-3.725,12.729-11.129,12.729-19.652C89.61,134.164,78.935,124.219,65.766,124.219z" style="opacity:0.1;fill:#6E6E96;enable-background:new    ;"></path>
			<path d="M31.832,159.25c0,0,12.346,2.416,12.346,14.5
				c0,0,3.325,20.523-9.525,35.045h29.677c-0.3-0.406-25.916-34.639,2.599-54.984C49.532,163.75,31.832,159.25,31.832,159.25z" style="fill:#EDE3DA;stroke:#CCCCDE;stroke-width:3;"></path>
			<g>
				<path d="M39.65,135.012" style="fill:#D57E58;"></path>
			</g>
			<path d="M59.521,159.214c0,0-18.729,24.188-4.335,49.578h9.143
				C64.323,208.792,45.313,182.227,59.521,159.214z" style="opacity:0.11;fill:#6E6E96;enable-background:new    ;"></path>
		</g>
	</g>
</g>
<g id="Layer_3_3_">
</g>
<g style="opacity:0.67;">
	<circle r="23.178" cy="84.273" cx="188.564" style="fill:#F0F0FF;"></circle>
	<g>
		<path d="M231.038,87.239v-7.647l-10.097-1.924c-0.338-2.008-0.859-3.947-1.551-5.812l7.942-6.42
			l-3.826-6.623l-9.703,3.378c-1.286-1.541-2.707-2.963-4.245-4.249l3.666-9.54l-6.621-3.824l-6.71,7.772
			c-1.856-0.687-3.804-1.208-5.81-1.555L192.495,40.7h-7.647l-1.925,10.095c-2.004,0.344-3.946,0.867-5.813,1.553l-6.421-7.943
			l-6.618,3.824l3.382,9.706c-1.548,1.287-2.969,2.708-4.245,4.249l-9.544-3.673l-3.823,6.625l7.771,6.712
			c-0.686,1.863-1.207,3.8-1.552,5.807l-10.095,1.588v7.649l10.094,1.925c0.339,2.006,0.863,3.946,1.551,5.812l-7.938,6.421
			l3.825,6.627l9.7-3.385c1.284,1.542,2.707,2.964,4.246,4.25l-3.675,9.534l6.628,3.822l6.71-7.771
			c1.861,0.684,3.808,1.209,5.809,1.555l1.595,10.095h7.646l1.929-10.093c2.005-0.346,3.942-0.864,5.812-1.554l6.42,7.942
			l6.62-3.822l-3.378-9.704c1.544-1.285,2.966-2.71,4.246-4.248l9.539,3.671l3.827-6.625l-7.774-6.711
			c0.684-1.863,1.209-3.803,1.558-5.812L231.038,87.239z M188.43,105.731c-12.354,0-22.377-10.019-22.377-22.38
			c0-12.358,10.021-22.375,22.377-22.375c12.359,0,22.375,10.017,22.375,22.375C210.805,95.711,200.789,105.731,188.43,105.731z" style="fill:#FFFFFF;"></path>
		<path d="M193.395,127.277h-10.167l-1.63-10.318c-1.362-0.279-2.709-0.641-4.024-1.079l-6.853,7.937
			l-8.814-5.083l3.757-9.746c-1.038-0.923-2.021-1.909-2.938-2.943l-9.907,3.457l-5.086-8.812l8.112-6.562
			c-0.441-1.324-0.801-2.672-1.074-4.029l-10.306-1.965V77.96l10.316-1.623c0.278-1.362,0.639-2.708,1.077-4.022l-7.937-6.856
			l5.084-8.81l9.752,3.753c0.916-1.035,1.9-2.019,2.942-2.941l-3.454-9.912l8.804-5.086l6.562,8.119
			c1.319-0.438,2.668-0.797,4.029-1.074l1.966-10.309h10.171l1.624,10.317c1.373,0.281,2.721,0.642,4.025,1.079l6.853-7.937
			l8.805,5.085l-3.747,9.752c1.035,0.921,2.019,1.906,2.938,2.943l9.911-3.45l5.088,8.808l-8.116,6.561
			c0.439,1.317,0.799,2.666,1.073,4.03l10.308,1.964v10.172l-10.31,1.617c-0.279,1.36-0.642,2.707-1.081,4.025l7.941,6.855
			l-5.09,8.81l-9.748-3.751c-0.921,1.039-1.906,2.023-2.941,2.94l3.449,9.911l-8.805,5.084l-6.562-8.117
			c-1.31,0.436-2.657,0.795-4.028,1.074L193.395,127.277z M185.79,124.277h5.124l1.891-9.895l1.023-0.177
			c1.906-0.329,3.772-0.828,5.547-1.483l1.01-0.373l6.29,7.782l4.436-2.561l-3.312-9.514l0.798-0.665
			c1.465-1.219,2.828-2.583,4.053-4.055l0.688-0.827l9.347,3.597l2.564-4.44l-7.62-6.578l0.357-0.974
			c0.66-1.799,1.161-3.667,1.488-5.551l0.184-1.059l9.88-1.55v-5.123l-9.902-1.887l-0.174-1.029
			c-0.317-1.887-0.814-3.751-1.478-5.54l-0.375-1.011l7.783-6.291l-2.564-4.438l-9.511,3.312l-0.665-0.797
			c-1.225-1.467-2.59-2.833-4.056-4.059l-0.823-0.688l3.592-9.345l-4.438-2.562l-6.579,7.621l-0.976-0.361
			c-1.766-0.653-3.632-1.153-5.545-1.484l-1.059-0.183l-1.557-9.89h-5.124l-1.888,9.897l-1.024,0.176
			c-1.887,0.324-3.754,0.823-5.55,1.483l-1.009,0.37l-6.29-7.781l-4.433,2.562l3.315,9.516l-0.8,0.665
			c-1.476,1.228-2.838,2.591-4.049,4.053l-0.688,0.83l-9.354-3.6l-2.562,4.44l7.618,6.58l-0.359,0.975
			c-0.658,1.789-1.156,3.654-1.48,5.543l-0.183,1.061l-9.891,1.556v5.125l9.899,1.888l0.174,1.028
			c0.315,1.873,0.813,3.737,1.479,5.543l0.372,1.009l-7.777,6.291l2.564,4.441l9.509-3.318l0.665,0.799
			c1.218,1.462,2.582,2.828,4.056,4.059l0.824,0.688l-3.6,9.338l4.441,2.562l6.578-7.619l0.975,0.358
			c1.792,0.659,3.658,1.158,5.547,1.485l1.059,0.183L185.79,124.277z M188.43,107.231c-13.166,0-23.877-10.712-23.877-23.88
			c0-13.165,10.711-23.875,23.877-23.875c13.165,0,23.875,10.71,23.875,23.875C212.305,96.519,201.595,107.231,188.43,107.231z
			 M188.43,62.476c-11.512,0-20.877,9.364-20.877,20.875c0,11.513,9.365,20.88,20.877,20.88c11.511,0,20.875-9.367,20.875-20.88
			C209.305,71.84,199.941,62.476,188.43,62.476z" style="fill:#CCCCDE;"></path>
	</g>
	<g>
		<path d="M188.506,73.155c5.564,0,10.082,4.52,10.082,10.085c0,5.571-4.518,10.087-10.082,10.087
			c-5.573,0-10.088-4.516-10.088-10.087C178.418,77.672,182.933,73.155,188.506,73.155z" style="fill:#DBDBED;"></path>
		<path d="M188.506,94.827c-6.39,0-11.588-5.198-11.588-11.587c0-6.388,5.198-11.585,11.588-11.585
			c6.387,0,11.582,5.197,11.582,11.585C200.088,89.629,194.893,94.827,188.506,94.827z M188.506,74.655
			c-4.735,0-8.588,3.851-8.588,8.585c0,4.735,3.853,8.587,8.588,8.587c4.732,0,8.582-3.852,8.582-8.587
			C197.088,78.506,193.239,74.655,188.506,74.655z" style="fill:#CCCCDE;"></path>
	</g>
</g>
<g style="opacity:0.69;">
	<path d="M69.094,171.242c10.137-1.271,19.391,5.908,20.667,16.049c1.275,10.138-5.908,19.393-16.044,20.666
		c-10.14,1.273-19.396-5.906-20.669-16.047C51.772,181.773,58.954,172.52,69.094,171.242z" style="fill:#F0F0FF;"></path>
	<g>
		<path d="M105.334,187.715l-0.766-6.062l-8.186-0.519c-0.469-1.551-1.077-3.039-1.807-4.444l5.649-5.877
			l-3.688-4.861l-7.354,3.646c-1.169-1.094-2.437-2.077-3.786-2.94l1.958-7.922l-5.629-2.365l-4.539,6.824
			c-1.543-0.356-3.134-0.578-4.756-0.646l-2.264-7.838l-6.062,0.766l-0.519,8.186c-1.553,0.472-3.04,1.074-4.445,1.808l-5.876-5.649
			l-4.861,3.689l3.643,7.354c-1.092,1.168-2.076,2.438-2.94,3.785l-7.921-1.959l-2.365,5.627l6.823,4.539
			c-0.355,1.543-0.58,3.135-0.646,4.756l-7.835,2.267l0.763,6.058l8.185,0.521c0.474,1.556,1.076,3.038,1.81,4.444l-5.648,5.877
			l3.688,4.863l7.35-3.646c1.171,1.098,2.438,2.077,3.788,2.941l-1.958,7.92l5.628,2.365l4.539-6.826
			c1.544,0.36,3.134,0.58,4.754,0.65l2.269,7.838l6.059-0.769l0.519-8.185c1.556-0.474,3.038-1.076,4.444-1.809l5.876,5.65
			l4.864-3.691l-3.646-7.35c1.097-1.172,2.077-2.438,2.939-3.785l7.923,1.957l2.369-5.629l-6.828-4.537
			c0.36-1.545,0.58-3.135,0.652-4.756L105.334,187.715z M73.438,206.602c-9.788,1.233-18.721-5.699-19.955-15.488
			c-1.229-9.786,5.703-18.721,15.491-19.954c9.787-1.229,18.719,5.702,19.951,15.491C90.158,196.441,83.225,205.372,73.438,206.602z" style="fill:#FFFFFF;"></path>
		<path d="M71.246,224.53l-2.332-8.058c-0.982-0.081-1.958-0.215-2.922-0.401l-4.661,7.011l-7.955-3.343
			l2.013-8.144c-0.811-0.564-1.588-1.168-2.326-1.807l-7.548,3.745l-5.213-6.874l5.806-6.041c-0.415-0.882-0.786-1.796-1.109-2.732
			l-8.406-0.535l-1.078-8.561l8.052-2.329c0.08-0.972,0.214-1.949,0.401-2.923l-7.009-4.663l3.343-7.953l8.145,2.015
			c0.562-0.807,1.167-1.583,1.806-2.322l-3.741-7.553l6.871-5.215l6.041,5.808c0.881-0.413,1.794-0.784,2.733-1.107l0.533-8.406
			l8.565-1.082l2.327,8.057c0.977,0.08,1.954,0.214,2.922,0.399l4.663-7.01l7.955,3.343l-2.013,8.146
			c0.807,0.562,1.583,1.165,2.323,1.807l7.553-3.744l5.212,6.871l-5.809,6.042c0.417,0.889,0.788,1.803,1.108,2.731l8.406,0.532
			l1.082,8.566l-8.053,2.327c-0.083,0.982-0.217,1.96-0.402,2.922l7.013,4.66l-3.348,7.955l-8.146-2.012
			c-0.562,0.807-1.166,1.583-1.806,2.322l3.745,7.548l-6.875,5.218l-6.041-5.81c-0.882,0.415-1.796,0.785-2.732,1.108l-0.533,8.405
			L71.246,224.53z M64.635,212.695l1.014,0.236c1.46,0.341,2.967,0.547,4.478,0.612l1.076,0.047l2.211,7.641l3.556-0.451
			l0.506-7.984l0.994-0.303c1.464-0.446,2.874-1.02,4.188-1.704l0.956-0.498l5.729,5.508l2.854-2.165l-3.558-7.171l0.711-0.76
			c1.023-1.093,1.956-2.294,2.771-3.568l0.58-0.905l7.722,1.907l1.39-3.303l-6.661-4.427l0.236-1.014
			c0.34-1.459,0.547-2.967,0.615-4.481l0.048-1.076l7.635-2.206l-0.449-3.559l-7.987-0.507l-0.302-0.997
			c-0.436-1.442-1.009-2.852-1.702-4.187l-0.496-0.955l5.506-5.729l-2.163-2.852l-7.174,3.557l-0.759-0.71
			c-1.096-1.025-2.297-1.958-3.569-2.772l-0.906-0.579l1.908-7.721l-3.303-1.388l-4.427,6.656l-1.011-0.233
			c-1.478-0.342-2.985-0.547-4.481-0.609L71.291,164l-2.207-7.642l-3.558,0.449l-0.506,7.985l-0.995,0.303
			c-1.47,0.446-2.878,1.019-4.188,1.702l-0.956,0.499l-5.729-5.508l-2.852,2.164l3.553,7.174l-0.709,0.759
			c-1.022,1.094-1.956,2.295-2.773,3.57l-0.58,0.904l-7.718-1.908l-1.388,3.3l6.655,4.428l-0.233,1.011
			c-0.344,1.492-0.549,2.999-0.61,4.48l-0.044,1.079l-7.641,2.211l0.448,3.555l7.983,0.508l0.303,0.994
			c0.446,1.465,1.02,2.874,1.705,4.188l0.499,0.955l-5.507,5.73l2.164,2.853l7.17-3.558l0.76,0.712
			c1.085,1.018,2.286,1.95,3.571,2.772l0.905,0.58l-1.908,7.718l3.301,1.388L64.635,212.695z M71.181,208.244
			c-9.72,0-17.969-7.284-19.187-16.943c-1.33-10.593,6.203-20.296,16.792-21.63c0.809-0.102,1.628-0.153,2.438-0.153
			c9.724,0,17.973,7.285,19.189,16.945c0.646,5.133-0.744,10.209-3.915,14.294c-3.17,4.084-7.743,6.688-12.874,7.333
			C72.815,208.191,71.993,208.244,71.181,208.244z M71.224,172.518c-0.685,0-1.378,0.044-2.063,0.13
			c-8.948,1.128-15.313,9.327-14.19,18.279c1.029,8.161,7.998,14.317,16.21,14.317c0.687,0,1.382-0.044,2.069-0.131
			c4.336-0.545,8.2-2.745,10.879-6.196c2.679-3.452,3.854-7.741,3.308-12.079C86.409,178.674,79.439,172.518,71.224,172.518z" style="fill:#CCCCDE;"></path>
	</g>
	<g>
		<circle r="8.051" cy="188.786" cx="71.252" style="fill:#DBDBED;"></circle>
		<path d="M71.252,198.337c-5.266,0-9.551-4.284-9.551-9.551s4.285-9.552,9.551-9.552
			s9.551,4.285,9.551,9.552S76.518,198.337,71.252,198.337z M71.252,182.234c-3.612,0-6.551,2.939-6.551,6.552
			s2.938,6.551,6.551,6.551s6.551-2.938,6.551-6.551S74.865,182.234,71.252,182.234z" style="fill:#CCCCDE;"></path>
	</g>
</g>
<g style="display:none;" id="Layer_2">
	
		<rect height="9.452" width="151.181" style="display:inline;opacity:0.15;fill:#6E6E96;enable-background:new    ;" y="217.59" x="47.817"></rect>
	<path d="M190.872,123.546H55.377
		c-5.12,0-9.309,1.087-9.309,9.306v5.233c0-8.222,4.188-9.304,9.309-9.304h135.496c5.113,0,9.304,1.084,9.304,9.304v-5.233
		C200.176,124.63,195.988,123.546,190.872,123.546z" style="display:inline;opacity:0.32;fill:#FFFFFF;enable-background:new    ;"></path>
	<g style="display:inline;">
		<path d="M212.842,222.875h-74.498v0.079h-25.602v-0.079H37.349c0,0.812,0.138,1.596,0.384,2.327h-0.384
			c0,4.062,0.222,10.877,7.385,10.877h160.722c7.166,0,7.388-6.813,7.388-10.877h-0.387
			C212.7,224.471,212.842,223.688,212.842,222.875z" style="fill:#D0D2DB;"></path>
	</g>
	<g style="display:inline;">
		<path d="M111.58,222.875H36.187
			c0,0.812,0.139,1.596,0.383,2.327h-0.383c0,4.062,0.223,10.877,7.385,10.877h160.722c7.165,0,7.387-6.813,7.387-10.877h-0.384
			c0.242-0.731,0.384-1.517,0.384-2.327h-74.5H111.58z" style="fill:none;stroke:#6E6E96;stroke-width:3;stroke-linecap:round;stroke-linejoin:round;"></path>
	</g>
	<path d="M36.354,221.705h-0.038
		c0,0.449,0.053,0.884,0.13,1.311C36.403,222.572,36.373,222.135,36.354,221.705z M204.422,230.675H43.704
		c-4.974,0-6.599-3.276-7.129-6.644h-0.26c0,4.062,0.223,10.875,7.389,10.875h160.718c7.166,0,7.386-6.809,7.386-10.875h-0.256
		C211.021,227.396,209.395,230.675,204.422,230.675z M211.773,221.705c-0.021,0.427-0.048,0.863-0.092,1.307
		c0.078-0.428,0.129-0.858,0.129-1.307H211.773z" style="display:inline;opacity:0.15;fill:#6E6E96;enable-background:new    ;"></path>
	<g style="display:inline;">
		<path d="M202.108,217.553c0,2.613-2.017,4.754-4.479,4.754h-148.7c-2.464,0-4.479-2.141-4.479-4.754
			V114.831c0-2.615,2.016-4.753,4.479-4.753h148.698c2.463,0,4.479,2.138,4.479,4.753v102.722H202.108z" style="fill:#D0D2DB;"></path>
	</g>
	<rect height="89.666" width="139.596" style="display:inline;fill:#A3D8FF;" y="120.007" x="53.396"></rect>
	<path d="M197.627,111.028H48.929
		c-2.464,0-4.479,2.14-4.479,4.752v2.168c0-2.613,2.016-3.753,4.479-3.753h148.698c2.463,0,4.479,1.14,4.479,3.753v-2.168
		C202.108,113.167,200.091,111.028,197.627,111.028z" style="display:inline;opacity:0.4;fill:#F2F5FF;enable-background:new    ;"></path>
	<g style="display:inline;">
		<path d="M202.108,217.553
			c0,2.613-2.017,4.754-4.479,4.754h-148.7c-2.464,0-4.479-2.141-4.479-4.754V114.831c0-2.615,2.016-4.753,4.479-4.753h148.698
			c2.463,0,4.479,2.138,4.479,4.753v102.722H202.108z" style="fill:none;stroke:#6E6E96;stroke-width:3;stroke-linecap:round;stroke-linejoin:round;"></path>
	</g>
	
		<rect height="6.022" width="139.596" style="display:inline;opacity:0.15;fill:#6E6E96;enable-background:new    ;" y="120.007" x="53.396"></rect>
	<polygon points="146.404,209.672 193.06,148.923 
		193.06,209.672" style="display:inline;opacity:0.25;fill:#FFFFFF;enable-background:new    ;"></polygon>
	
		<rect height="5.225" width="18.814" style="display:inline;fill:none;stroke:#6E6E96;stroke-width:3;stroke-linecap:round;stroke-linejoin:round;" y="110.077" x="114.899"></rect>
	<path d="M197.33,217.553H48.632
		c-2.464,0-4.48-2.142-4.48-4.754v4.754c0,2.613,2.018,4.754,4.48,4.754H197.33c2.461,0,4.479-2.141,4.479-4.754v-4.754
		C201.809,215.411,199.791,217.553,197.33,217.553z" style="display:inline;opacity:0.25;fill:#6E6E96;enable-background:new    ;"></path>
	<polygon points="103.402,209.672 171.635,126.029 
		161.635,126.029 93.402,209.672" style="display:inline;opacity:0.25;fill:#FFFFFF;enable-background:new    ;"></polygon>
	<polygon points="192.99,126.029 124.757,209.672 
		193.06,209.672" style="display:inline;opacity:0.25;fill:#FFFFFF;enable-background:new    ;"></polygon>
	
		<rect height="89.666" width="139.596" style="display:inline;fill:none;stroke:#6E6E96;stroke-width:3;stroke-linecap:round;stroke-linejoin:round;" y="120.007" x="53.396"></rect>
</g>
<circle r="76.905" cy="120.637" cx="126.393" style="fill:#8AEBCA;"></circle>
<path d="M126.183,41.842c-42.558,0-77.058,34.5-77.058,77.058s34.5,77.058,77.058,77.058
	c42.559,0,77.059-34.5,77.059-77.058S168.74,41.842,126.183,41.842z M123.844,189.298c-40.041,0-72.5-32.46-72.5-72.5
	c0-40.041,32.46-72.5,72.5-72.5c40.042,0,72.5,32.46,72.5,72.5C196.345,156.838,163.886,189.298,123.844,189.298z" style="fill:#7DD1B4;"></path>
<g>
	<circle r="9.15" cy="90.691" cx="126.183" style="fill:#FFFFFF;"></circle>
	<path d="M126.183,101.341c-5.872,0-10.649-4.777-10.649-10.65s4.777-10.65,10.649-10.65
		c5.873,0,10.65,4.777,10.65,10.65S132.056,101.341,126.183,101.341z M126.183,83.041c-4.218,0-7.649,3.432-7.649,7.65
		s3.432,7.65,7.649,7.65c4.219,0,7.65-3.432,7.65-7.65S130.402,83.041,126.183,83.041z" style="fill:#6E6E96;"></path>
</g>
<path d="M126.183,199.042c-43.317,0-78.558-35.241-78.558-78.558c0-43.317,35.241-78.559,78.558-78.559
	c43.317,0,78.559,35.241,78.559,78.559C204.741,163.801,169.5,199.042,126.183,199.042z M126.183,44.926
	c-41.663,0-75.558,33.896-75.558,75.559s33.895,75.558,75.558,75.558c41.663,0,75.559-33.895,75.559-75.558
	S167.846,44.926,126.183,44.926z" style="fill:#6E6E96;"></path>
<g>
	<path d="M134.32,151.542c0,5.5-3.661,10-8.137,10s-8.137-4.5-8.137-10v-31.606c0-5.5,3.662-10,8.137-10
		c4.476,0,8.137,4.5,8.137,10V151.542z" style="fill:#FFFFFF;"></path>
	<path d="M126.183,163.042c-5.313,0-9.637-5.159-9.637-11.5v-31.606c0-6.341,4.323-11.5,9.637-11.5
		s9.637,5.159,9.637,11.5v31.606C135.82,157.883,131.496,163.042,126.183,163.042z M126.183,111.435c-3.66,0-6.637,3.813-6.637,8.5
		v31.606c0,4.687,2.977,8.5,6.637,8.5c3.659,0,6.637-3.813,6.637-8.5v-31.606C132.82,115.249,129.842,111.435,126.183,111.435z" style="fill:#6E6E96;"></path>
</g>
<g id="Layer_2_2_">
	<g>
		<path d="M243.696,115.616c0.726-2.219,2.993-4.943,5.046-6.057l0.009-0.004
			c2.056-1.113,2.056-2.932,0-4.043l-0.009-0.006c-2.053-1.111-4.438-3.617-5.301-5.566c-0.862-1.951-2.274-1.951-3.14,0
			c-0.862,1.951-3.248,4.455-5.305,5.566l-0.011,0.006c-2.055,1.111-2.055,2.93,0,4.043l0.011,0.004
			c2.057,1.111,4.32,3.838,5.045,6.057l0.516,1.568c0.725,2.218,1.898,2.218,2.627,0L243.696,115.616z" style="fill:#FFBF00;"></path>
	</g>
	<g>
		<path d="M30.514,56.066c0.677-2.079,2.803-4.632,4.729-5.673l0.008-0.004c1.922-1.042,1.922-2.746,0-3.787
			l-0.008-0.005c-1.923-1.042-4.157-3.388-4.967-5.215c-0.808-1.826-2.131-1.826-2.937,0c-0.811,1.828-3.046,4.173-4.966,5.215
			l-0.011,0.005c-1.92,1.041-1.92,2.745,0,3.787l0.011,0.004c1.92,1.041,4.05,3.595,4.729,5.673l0.479,1.471
			c0.679,2.078,1.784,2.078,2.461,0L30.514,56.066z" style="fill:#FFB0B8;"></path>
	</g>
	<g>
		<path d="M16.749,191.288c0.614-1.89,2.546-4.207,4.292-5.152l0.009-0.004c1.744-0.944,1.744-2.494,0-3.438
			l-0.009-0.006c-1.746-0.941-3.773-3.076-4.508-4.732c-0.733-1.658-1.937-1.658-2.671,0c-0.73,1.656-2.763,3.791-4.509,4.732
			l-0.007,0.006c-1.746,0.942-1.746,2.492,0,3.438l0.007,0.004c1.746,0.945,3.678,3.269,4.292,5.152l0.436,1.334
			c0.614,1.889,1.621,1.889,2.234,0L16.749,191.288z" style="fill:#7FDCFF;"></path>
	</g>
	<g>
		<path d="M203.483,25.566c0.466-1.429,1.927-3.184,3.248-3.896l0.006-0.003c1.32-0.718,1.32-1.89,0-2.604
			l-0.006-0.003c-1.319-0.717-2.854-2.328-3.412-3.584c-0.555-1.255-1.465-1.255-2.019,0c-0.557,1.256-2.093,2.867-3.411,3.584
			l-0.007,0.003c-1.319,0.715-1.319,1.886,0,2.604l0.007,0.003c1.318,0.715,2.779,2.47,3.248,3.896l0.329,1.009
			c0.466,1.432,1.226,1.432,1.688,0L203.483,25.566z" style="fill:#FFB0B8;"></path>
	</g>
	<g>
		<path d="M160.99,233.568c0.465-1.428,1.926-3.184,3.247-3.896l0.007-0.002c1.319-0.717,1.319-1.891,0-2.604
			l-0.007-0.002c-1.319-0.717-2.854-2.328-3.411-3.584c-0.556-1.256-1.466-1.256-2.02,0c-0.557,1.256-2.091,2.867-3.411,3.584
			l-0.006,0.002c-1.319,0.715-1.319,1.889,0,2.604l0.007,0.002c1.32,0.715,2.781,2.472,3.248,3.896l0.329,1.013
			c0.466,1.43,1.227,1.43,1.689,0L160.99,233.568z" style="fill:#FFB0B8;"></path>
	</g>
	<g>
		<path d="M30.492,105.964c0.465-1.429,1.926-3.186,3.248-3.898l0.006-0.003c1.319-0.716,1.319-1.888,0-2.603
			l-0.006-0.003c-1.32-0.719-2.854-2.328-3.412-3.584c-0.556-1.255-1.466-1.255-2.02,0c-0.557,1.256-2.091,2.865-3.411,3.584
			l-0.007,0.003c-1.319,0.715-1.319,1.886,0,2.603l0.007,0.003c1.32,0.715,2.781,2.472,3.248,3.898l0.329,1.009
			c0.466,1.43,1.227,1.43,1.689,0L30.492,105.964z" style="fill:#FFFF00;"></path>
	</g>
</g>
</svg>
